<svg width="128" height="128" viewBox="0 0 128 128" fill="none" xmlns="http://www.w3.org/2000/svg">
<rect width="128" height="128" rx="40" fill="white"/>
<path d="M22.9927 88.6462L23.1294 88.6135C23.152 88.783 23.1634 88.9492 23.176 89.1187C23.1332 88.9818 23.0558 88.8059 22.9927 88.6462ZM114.36 63.9745C114.412 59.3824 113.622 54.712 111.925 50.4784C110.173 46.2774 107.868 42.4316 104.979 39.4006C105.29 37.7352 105.209 35.0628 103.149 32.4294C100.4 28.8313 96.4786 24.9986 92.0325 22.5086C87.6381 19.9176 82.6965 19.1028 79.2477 20.0349C78.0042 19.1517 76.547 18.5422 75.1934 18.1968C73.8333 17.9034 72.5704 17.9751 71.709 18.1707C70.404 18.4477 69.1119 18.7769 67.8101 19.0898C66.871 19.2723 65.9675 19.4482 65.0608 19.621C64.9183 19.6177 64.7629 19.6177 64.6237 19.6112C62.4346 19.5884 60.1969 19.5297 57.9965 19.6144C56.8819 19.6601 55.8308 19.7253 54.6987 19.8752C53.3755 20.0903 52.0776 20.3706 50.8354 20.7356C50.9002 20.7487 50.9899 20.7617 51.0861 20.7747C50.522 20.8301 49.9575 20.8856 49.4038 20.967C46.5725 21.3581 43.7747 22.0686 41.1954 23.1441C35.484 26.0708 29.2568 29.7503 26.4852 33.9416C24.8382 36.7607 23.2556 39.1367 21.905 41.4963C21.8467 41.568 21.7858 41.6397 21.7278 41.7114C21.3888 42.0112 21.0611 42.3599 20.7512 42.7445C20.7385 42.7575 20.7233 42.7771 20.712 42.7869L20.7159 42.7934C20.3768 43.2236 20.0592 43.6962 19.8241 44.2437C20.1262 43.6897 20.4426 43.2334 20.7638 42.8292L21.0624 43.0574C20.7725 43.618 20.507 44.1981 20.258 44.7749C18.1227 47.6495 16.497 51.919 15.1729 52.8511C16.1266 54.6501 16.7652 51.7886 17.5686 49.3769C17.1777 50.6512 16.8905 52.0917 16.5466 53.5355C16.2998 55.0087 16.0495 56.5013 15.8076 57.9484C15.7875 58.1114 15.7623 58.2678 15.7396 58.4307C15.6622 57.1825 15.2892 56.2373 16.2302 55.0021C15.9116 54.2102 15.5207 54.3861 15.0032 55.2237C14.591 58.0559 13.5651 63.4107 14.6694 63.7366C14.4909 64.3135 14.2811 64.848 14 65.3238L14.9566 66.7285C14.8756 66.9371 14.8261 67.1456 14.7668 67.3575C14.897 67.188 15.0172 67.0023 15.1347 66.81C15.5103 70.4635 15.9443 74.4136 17.6787 76.7797C18.043 76.9785 18.3351 77.1121 18.5867 77.2066C18.3743 78.3114 17.8937 76.8579 17.2878 76.6493C17.9646 79.1262 18.816 80.896 19.9024 81.2479C19.5177 79.9084 19.0802 78.6048 18.7755 77.262C19.1511 77.3728 19.4115 77.3826 19.6038 77.3272C20.621 78.4418 21.5002 79.2924 21.4885 79.7683C21.8846 81.4826 22.1618 83.0372 22.4147 84.5266C22.4108 84.5234 22.4095 84.5201 22.4056 84.5169C22.4082 84.5266 22.4134 84.5331 22.416 84.5396C22.6245 85.7683 22.8269 86.9514 23.0419 88.0954C22.9344 88.0726 22.8269 88.0465 22.7272 88.0172C21.9973 86.4267 20.769 84.2659 20.517 83.3501C20.588 84.4354 20.722 85.5141 20.9309 86.5864L21.9668 87.1959C22.1566 87.6261 22.1488 87.8868 22.0691 88.0562C22.0439 88.079 22.0238 88.1182 21.9999 88.1508C21.9137 88.2551 21.801 88.3235 21.7152 88.3627C21.757 88.4181 21.8088 88.4637 21.8519 88.5158C21.8214 88.6364 21.7858 88.7342 21.7683 88.9069L22.1213 88.8319C22.4273 89.1839 22.7333 89.5327 23.0371 89.8814C23.1472 89.8944 23.1812 89.8195 23.2152 89.7445C23.2874 91.3317 23.2761 92.9808 25.0419 95.4219C25.0798 95.4219 25.1533 95.4415 25.1977 95.4447C25.8579 96.8331 26.718 98.2346 27.9107 99.6849C28.1195 100.05 29.3656 100.581 30.6205 100.953C30.7037 101.024 30.7685 101.083 30.8582 101.158C31.8348 101.406 32.4229 101.438 32.7707 101.334C33.2198 101.36 33.5615 101.337 33.6486 101.243C33.5032 100.056 32.3533 98.2378 31.1959 96.3703C31.3261 96.4844 31.4401 96.6147 31.5741 96.7256L31.4184 96.4387C31.3225 96.4029 31.2565 96.3769 31.1807 96.3475C30.2484 94.8451 29.3148 93.3132 28.8987 92.0454C29.0431 90.8819 29.0518 90.2236 29.0923 89.1285C29.1885 87.4142 31.4589 89.2622 32.1561 89.5685C32.1182 87.8998 31.5528 86.1301 30.8063 84.2202C32.2205 86.1301 33.8079 87.8966 35.5728 89.4773L34.9377 90.028C36.6518 91.2241 36.1926 92.4626 38.3266 93.5902L38.3923 93.6294L38.391 93.6196C38.5326 92.3909 37.5928 91.6054 36.8794 90.569C41.8757 94.6266 47.9983 97.3513 54.7492 98.1401L64.9281 99.3263C66.6185 99.5219 68.2797 99.5512 69.928 99.5089C68.2538 100.343 66.5213 101.044 64.6884 101.419C64.9151 103.201 65.1256 105.137 66.4015 106.829C67.6676 108.537 70.0996 109.984 74.6721 110C76.0451 109.974 77.4278 109.762 78.8041 109.443C80.8572 109.557 83.1239 109.485 85.5462 109.055C86.0805 108.589 86.6796 108.123 87.324 107.657C87.9457 107.139 88.6128 106.614 89.3091 106.096C90.7307 105.095 92.1749 103.932 93.6095 102.778C94.1438 102.354 94.6587 101.914 95.1703 101.474C95.4942 101.386 95.818 101.292 96.1515 101.2C96.6794 100.428 97.5699 99.473 98.4054 98.4822C98.4118 98.4757 98.4183 98.4692 98.4248 98.4627C99.3056 97.5795 100.122 96.7255 100.776 95.9727C105.734 91.8857 109.37 86.5733 111.566 80.8959C112.094 79.4717 112.524 78.0149 112.958 76.5743C113.35 75.124 113.577 73.6378 113.852 72.1745C114.127 70.7111 114.147 69.225 114.273 67.7551C114.396 66.0929 114.357 65.3466 114.36 63.9745Z" fill="#F17A54"/>
</svg>
